#!OML:ASF F:\twosubjects\two\Thursday\Session 1\Rory.ASF
:FULLY-SPECIFIED
:DEGREES
237
root 10.1911 17.7759 5.63569 6.58781 -53.3088 7.16154
lowerback 17.9066 -0.757227 -2.77949
upperback 9.88597 -1.77822 -0.774782
thorax 0.613631 -1.1265 1.04962
lowerneck -11.3674 -1.43554 -1.71786
upperneck -7.59066 -1.77534 5.43947
head -0.408207 -0.924285 1.94992
rclavicle -6.02442e-014 3.35201e-014
rhumerus -76.185 -26.4768 -25.4399
rradius 13.2169
rwrist 62.8677
rhand -5.64173 18.676
rfingers 7.12502
rthumb 20.1767 -10.2961
lclavicle -6.02442e-014 3.35201e-014
lhumerus -69.5489 -2.35182 81.9766
lradius 19.2874
lwrist -39.9656
lhand -2.16729 34.523
lfingers 7.12502
lthumb 23.5129 63.106
rfemur -24.7472 11.1756 -0.0607065
rtibia 34.7105
rfoot -19.5584 -13.0012
rtoes -26.6805
lfemur -31.5589 0.693079 -12.5188
ltibia 42.5814
lfoot -18.081 -8.26017
ltoes -3.31896
238
root 10.2276 17.7796 5.68427 6.16796 -53.8934 7.76629
lowerback 17.7522 -0.55656 -3.12441
upperback 9.94255 -1.56829 -0.818691
thorax 0.755955 -1.03923 1.15786
lowerneck -11.5332 -1.46353 -1.76713
upperneck -7.57642 -1.81486 5.21549
head -0.377749 -0.941908 1.8831
rclavicle 3.36692e-015 7.82715e-015
rhumerus -75.9438 -25.9038 -26.5191
rradius 13.2867
rwrist 62.0269
rhand -5.62276 18.1899
rfingers 7.12502
rthumb 20.195 -10.7803
lclavicle 3.36692e-015 7.82715e-015
lhumerus -69.1988 -1.37132 80.3302
lradius 18.6703
lwrist -41.9751
lhand -1.81381 31.7892
lfingers 7.12502
lthumb 23.852 60.3282
rfemur -24.8488 11.2814 -0.77326
rtibia 34.4749
rfoot -19.3331 -12.6591
rtoes -27.4267
lfemur -31.7342 1.24251 -13.3039
ltibia 43.0105
lfoot -18.102 -7.84786
ltoes -3.25665
239
root 10.2716 17.7779 5.71345 6.29148 -54.0637 7.6104
lowerback 17.9078 -0.558699 -2.95814
upperback 9.96777 -1.55623 -0.824063
thorax 0.697052 -1.02746 1.0598
lowerneck -11.5692 -1.44684 -1.53931
upperneck -7.70549 -1.8255 4.91924
head -0.419293 -0.957107 1.74651
rclavicle 4.60559e-014 -3.516e-014
rhumerus -76.4211 -25.8511 -26.2992
rradius 13.3549
rwrist 62.4829
rhand -5.15425 18.0624
rfingers 7.12502
rthumb 20.6452 -10.8596
lclavicle 4.60559e-014 -3.516e-014
lhumerus -68.9834 -0.493304 78.0443
lradius 18.0632
lwrist -44.6305
lhand -1.61984 15.2144
lfingers 7.12502
lthumb 24.038 43.7291
rfemur -24.8263 11.4554 -0.897418
rtibia 34.1574
rfoot -19.1734 -12.6297
rtoes -26.9565
lfemur -32.0763 1.78241 -13.5065
ltibia 43.4439
lfoot -17.7017 -8.20937
ltoes 0.0320446
240
root 10.3197 17.7818 5.74589 6.45795 -54.1758 7.22354
lowerback 18.2855 -0.652969 -2.67309
upperback 10.0291 -1.6558 -0.809293
thorax 0.564563 -1.06828 0.939329
lowerneck -11.9563 -1.31579 -1.1112
upperneck -7.45857 -1.72103 4.41969
head -0.293457 -0.909852 1.51053
rclavicle 1.73937e-016 -2.20651e-014
rhumerus -77.2566 -26.2893 -24.8408
rradius 13.2462
rwrist 64.2768
rhand -5.36922 18.1244
rfingers 7.12502
rthumb 20.4386 -10.8199
lclavicle 1.73937e-016 -2.20651e-014
lhumerus -69.2764 -1.4408 80.9476
lradius 18.6529
lwrist -41.2741
lhand -2.16188 33.1933
lfingers 7.12502
lthumb 23.5181 61.7755
rfemur -24.6245 11.6485 -0.840457
rtibia 33.7314
rfoot -19.0198 -12.6305
rtoes -26.8327
lfemur -32.2982 2.3345 -13.5877
ltibia 43.8863
lfoot -17.3741 -8.63917
ltoes 5.45507
241
root 10.3695 17.7836 5.7965 6.51815 -54.7252 6.86253
lowerback 18.6267 -0.628989 -2.35579
upperback 10.1175 -1.59956 -0.865128
thorax 0.471901 -1.0311 0.698382
lowerneck -12.0172 -1.0837 -0.864285
upperneck -7.40832 -1.44737 4.17288
head -0.28099 -0.778199 1.39761
rclavicle -1.20016e-014 4.20678e-014
rhumerus -77.6344 -26.4027 -24.0658
rradius 13.0384
rwrist 65.3298
rhand -5.45787 18.3346
rfingers 7.12502
rthumb 20.3534 -10.6188
lclavicle -1.20016e-014 4.20678e-014
lhumerus -68.9942 -0.0947402 79.0543
lradius 18.0193
lwrist -43.3304
lhand -3.47073 34.3329
lfingers 7.12502
lthumb 22.2621 63.0706
rfemur -24.4003 11.9215 -0.846961
rtibia 33.233
rfoot -18.5761 -12.7038
rtoes -28.2481
lfemur -32.2232 3.03803 -13.8114
ltibia 44.2926
lfoot -17.78 -8.08269
ltoes 5.8744
242
root 10.4166 17.7824 5.8584 6.83199 -55.4307 6.30099
lowerback 18.6943 -0.526891 -1.83311
upperback 10.1873 -1.39772 -0.871166
thorax 0.49269 -0.91449 0.362166
lowerneck -11.5871 -0.907334 -1.04423
upperneck -7.71025 -1.17794 4.24816
head -0.450157 -0.646193 1.46433
rclavicle 1.17271e-013 -3.43152e-014
rhumerus -77.5436 -25.988 -24.4515
rradius 12.8878
rwrist 65.1398
rhand -5.30792 18.609
rfingers 7.12502
rthumb 20.4975 -10.329
lclavicle 1.17271e-013 -3.43152e-014
lhumerus -68.9768 0.328587 78.5333
lradius 17.7075
lwrist -43.8897
lhand -2.24064 36.1502
lfingers 7.12502
lthumb 23.4426 64.7422
rfemur -24.2481 12.2641 -0.789653
rtibia 32.7102
rfoot -17.8829 -12.9026
rtoes -30.8354
lfemur -32.08 3.74075 -13.9358
ltibia 44.593
lfoot -18.2136 -7.1332
ltoes 2.30238
243
root 10.4572 17.7874 5.90906 6.82157 -56.046 6.23635
lowerback 18.6503 -0.374018 -1.82218
upperback 10.262 -1.204 -0.837053
thorax 0.592626 -0.823332 0.355854
lowerneck -11.376 -0.744495 -1.0119
upperneck -7.84801 -0.966809 3.95597
head -0.535832 -0.54494 1.37272
rclavicle 8.25935e-014 -1.8605e-014
rhumerus -76.214 -24.7009 -28.0501
rradius 12.8924
rwrist 62.8656
rhand -7.07345 16.4246
rfingers 7.12502
rthumb 18.8002 -12.6869
lclavicle 8.25935e-014 -1.8605e-014
lhumerus -69.105 0.0467376 79.4456
lradius 17.8162
lwrist -43.6406
lhand -1.10451 35.3031
lfingers 7.12502
lthumb 24.532 63.7517
rfemur -24.1934 12.6465 -1.06482
rtibia 32.2255
rfoot -17.4986 -12.7834
rtoes -30.7407
lfemur -31.9765 4.36789 -14.3039
ltibia 44.7562
lfoot -18.2406 -6.72215
ltoes 0.45885
